<svg id="图层_1" data-name="图层 1" xmlns="http://www.w3.org/2000/svg" viewBox="0 0 24 24"><defs><style>.cls-1{fill:none;stroke:#fff;stroke-width:0.5px;opacity:0.01;isolation:isolate;}.cls-2{fill:#fff;}</style></defs><title>details-guanbi</title><g id="首页"><g id="商家详情页-商品详情备份"><g id="图标_基础_叉号_圆形_线性" data-name="图标/基础/叉号/圆形/线性"><rect id="矩形" class="cls-1" x="0.25" y="0.25" width="23.5" height="23.5"/><path id="形状" class="cls-2" d="M19.46,4.54a10.55,10.55,0,1,1-14.92,0A10.55,10.55,0,0,1,19.46,4.54ZM12,21.09a9.1,9.1,0,1,0-6.43-2.66A9.14,9.14,0,0,0,12,21.09ZM12,11l2.83-2.83a.72.72,0,0,1,1,1L13,12l2.82,2.83a.72.72,0,0,1-1,1L12,13,9.17,15.85a.72.72,0,0,1-1-1L11,12,8.14,9.17a.73.73,0,0,1,1-1Z"/></g></g></g></svg>