<svg id="图层_1" data-name="图层 1" xmlns="http://www.w3.org/2000/svg" viewBox="0 0 40 40"><defs><style>.cls-1{fill:#ff1610;}</style></defs><title>details-gwc2</title><g id="首页"><g id="商家详情页"><g id="底部条"><g id="details-gwc2"><path id="形状结合" class="cls-1" d="M20,0A20,20,0,1,1,0,20,20,20,0,0,1,20,0Zm7.19,27.2a2.41,2.41,0,1,0,2.4,2.4A2.41,2.41,0,0,0,27.19,27.2Zm-12,0a2.41,2.41,0,1,0,2.4,2.4A2.41,2.41,0,0,0,15.18,27.2ZM11.94,8H8v2.4h2.4l4.32,9.13L13,22.4a4.26,4.26,0,0,0-.24,1.2,2.41,2.41,0,0,0,2.4,2.4H29.59V23.6H15.66a.26.26,0,0,1-.24-.24v-.12l1.08-2h8.89a2.19,2.19,0,0,0,2-1.2l4.32-7.81a.66.66,0,0,0,.24-.6,1.13,1.13,0,0,0-1.2-1.2H13Z"/></g></g></g></g></svg>