<svg id="图层_1" data-name="图层 1" xmlns="http://www.w3.org/2000/svg" viewBox="0 0 16 16"><defs><style>.cls-1{fill:#ff1610;}</style></defs><title>details-jiahao</title><g id="首页"><g id="商家详情页-已选"><g id="商品列表"><g id="_1" data-name="1"><g id="加减器"><g id="details-jiahao"><path id="形状结合" class="cls-1" d="M10,0a6,6,0,0,1,6,6v4a6,6,0,0,1-6,6H6a6,6,0,0,1-6-6V6A6,6,0,0,1,6,0ZM8.5,3h-1a.5.5,0,0,0-.5.5H7V7H3.5a.5.5,0,0,0-.5.5H3v1a.5.5,0,0,0,.5.5H7v3.5a.5.5,0,0,0,.5.5h1a.5.5,0,0,0,.5-.5H9V9h3.5a.5.5,0,0,0,.5-.5h0v-1a.5.5,0,0,0-.5-.5H9V3.5A.5.5,0,0,0,8.5,3Z"/></g></g></g></g></g></g></svg>