<svg id="图层_1" data-name="图层 1" xmlns="http://www.w3.org/2000/svg" viewBox="0 0 14 14"><defs><style>.cls-1{fill:#ff1610;fill-rule:evenodd;}</style></defs><title>details-tuijian</title><g id="首页"><g id="商家详情页"><g id="商品列表"><g id="details-tuijian"><path id="形状结合" class="cls-1" d="M12,0a2,2,0,0,1,2,2V12a2,2,0,0,1-2,2H2a2,2,0,0,1-2-2V2A2,2,0,0,1,2,0ZM5.74,3.63c-.12.3-.25.6-.4.91H2v.8H4.89A11.09,11.09,0,0,1,1.58,8.56l.54.7A15.66,15.66,0,0,0,3.77,8v4.24H4.6V7.14a11.58,11.58,0,0,0,1.28-1.8h6.26v-.8H6.28l.3-.76Zm5.74,2.63H6.3v.79h4c-.57.39-1.07.71-1.5,1v.75H5.44v.81H8.75V11a.39.39,0,0,1-.44.44c-.31,0-.76,0-1.31-.06l.25.84H8.66a.86.86,0,0,0,1-1V9.58h2.64V8.77H9.62V8.26q1-.72,1.86-1.38Zm-6.06-5H4.53v.86H1.8v.79H4.53v.87h.89V2.86H8.58v.88h.89V2.86H12.2V2.07H9.47V1.21H8.58v.86H5.42Z"/></g></g></g></g></svg>