<svg id="图层_1" data-name="图层 1" xmlns="http://www.w3.org/2000/svg" viewBox="0 0 17 17"><defs><style>.cls-1{fill:#ff1610;}</style></defs><title>details-jianhao</title><g id="首页"><g id="商家详情页-已选"><g id="商品列表"><g id="_1" data-name="1"><g id="details-jianhao"><path id="形状结合" class="cls-1" d="M11,.5A6.5,6.5,0,0,1,17.5,7h0v4A6.5,6.5,0,0,1,11,17.5H7A6.5,6.5,0,0,1,.5,11h0V7A6.5,6.5,0,0,1,7,.5h4Zm0,1H7A5.5,5.5,0,0,0,1.5,7h0v4A5.5,5.5,0,0,0,7,16.5h4A5.5,5.5,0,0,0,16.5,11h0V7A5.5,5.5,0,0,0,11,1.5ZM13.5,8a.5.5,0,0,1,.5.5v1a.5.5,0,0,1-.5.5h-9A.5.5,0,0,1,4,9.5v-1A.5.5,0,0,1,4.5,8Z" transform="translate(-0.5 -0.5)"/></g></g></g></g></g></svg>