<svg id="图层_1" data-name="图层 1" xmlns="http://www.w3.org/2000/svg" viewBox="0 0 16 16"><defs><style>.cls-1{fill:none;stroke:#fff;stroke-width:0.5px;opacity:0.01;isolation:isolate;}.cls-2{fill:#595959;}</style></defs><title>details-qingkong</title><g id="首页"><g id="购物车"><g id="图标_经典_删除_线性" data-name="图标/经典/删除/线性"><rect id="矩形" class="cls-1" x="0.25" y="0.25" width="15.5" height="15.5"/><path id="形状" class="cls-2" d="M2.91,4.61H2.18a.48.48,0,0,1-.48-.49.47.47,0,0,1,.48-.48H4.85V2.18a.48.48,0,0,1,.48-.48h5.34a.48.48,0,0,1,.48.48V3.64h2.67a.47.47,0,0,1,.48.48.48.48,0,0,1-.48.49h-.73v9.21a.48.48,0,0,1-.48.48H3.39a.48.48,0,0,1-.48-.48Zm1,0v8.72h8.24V4.61Zm1.94-1h4.36v-1H5.82ZM6.3,6.55A.48.48,0,0,1,6.79,7v3.39a.49.49,0,1,1-1,0V7A.48.48,0,0,1,6.3,6.55Zm3.4,0a.48.48,0,0,1,.48.48v3.39a.49.49,0,1,1-1,0V7A.48.48,0,0,1,9.7,6.55Z"/></g></g></g></svg>