<svg id="图层_1" data-name="图层 1" xmlns="http://www.w3.org/2000/svg" viewBox="0 0 20 20"><defs><style>.cls-1{fill:#ff1610;}</style></defs><title>details-gwc1</title><g id="首页"><g id="商家详情页"><g id="商品列表"><g id="_1" data-name="1"><g id="details-gwc1"><path id="形状结合" class="cls-1" d="M12,0a8,8,0,0,1,8,8v4a8,8,0,0,1-8,8H8a8,8,0,0,1-8-8V8A8,8,0,0,1,8,0Zm1.59,13.6a1.2,1.2,0,1,0,1.2,1.2A1.2,1.2,0,0,0,13.59,13.6Zm-6,0a1.2,1.2,0,1,0,1.2,1.2A1.2,1.2,0,0,0,7.59,13.6ZM6,4H4V5.2h1.2L7.35,9.76,6.51,11.2a2.13,2.13,0,0,0-.12.6A1.2,1.2,0,0,0,7.59,13h7.2V11.8h-7a.13.13,0,0,1-.12-.12v-.06l.54-1h4.44a1.09,1.09,0,0,0,1-.6l2.17-3.9A.33.33,0,0,0,16,5.8a.57.57,0,0,0-.6-.6H6.51Z"/></g></g></g></g></g></svg>